<svg width="164" height="44" viewBox="0 0 164 44" fill="none" xmlns="http://www.w3.org/2000/svg">
<path d="M43 0H0V44H11V27H38V17H11V11H43V0Z" fill="#FDFC02"/>
<path d="M84 0H49V11H60H80L82.5 13.5L80 16.5H60H49V44H60V27.5H68.5L84.5 44H93V36L84.5 27.5L93 19V9L84 0Z" fill="#FDFC02"/>
<path d="M60 9H49V18H60V9Z" fill="#FDFC02"/>
<path d="M115 0H99V11H104V44H115V0Z" fill="#FDFC02"/>
<path d="M129 0L121 8V16H129L134 11H151L153.5 13.5V14.5L151.5 16.5H132V28H151L153.5 30.5L151 33H134L129 28H121V36L129 44H156L164 36V25L161.5 22.5V21.5L164 19V8L156 0H129Z" fill="#FDFC02"/>
</svg>
